<?xml version="1.0" encoding="UTF-8" standalone="no"?>
<svg
   xmlns:dc="http://purl.org/dc/elements/1.1/"
   xmlns:cc="http://creativecommons.org/ns#"
   xmlns:rdf="http://www.w3.org/1999/02/22-rdf-syntax-ns#"
   xmlns:svg="http://www.w3.org/2000/svg"
   xmlns="http://www.w3.org/2000/svg"
   xmlns:sodipodi="http://sodipodi.sourceforge.net/DTD/sodipodi-0.dtd"
   xmlns:inkscape="http://www.inkscape.org/namespaces/inkscape"
   version="1.0"
   width="18.666666"
   height="18.666666"
   viewBox="0 0 14 14"
   preserveAspectRatio="xMidYMid meet"
   id="svg4543"
   sodipodi:docname="thumbup_off.svg"
   inkscape:version="0.92.4 5da689c313, 2019-01-14">
  <metadata
     id="metadata4549">
    <rdf:RDF>
      <cc:Work
         rdf:about="">
        <dc:format>image/svg+xml</dc:format>
        <dc:type
           rdf:resource="http://purl.org/dc/dcmitype/StillImage" />
        <dc:title></dc:title>
      </cc:Work>
    </rdf:RDF>
  </metadata>
  <defs
     id="defs4547" />
  <sodipodi:namedview
     pagecolor="#ffffff"
     bordercolor="#666666"
     borderopacity="1"
     objecttolerance="10"
     gridtolerance="10"
     guidetolerance="10"
     inkscape:pageopacity="0"
     inkscape:pageshadow="2"
     inkscape:window-width="1916"
     inkscape:window-height="1165"
     id="namedview4545"
     showgrid="false"
     units="px"
     inkscape:zoom="25.800559"
     inkscape:cx="5.8853541"
     inkscape:cy="8.0931171"
     inkscape:window-x="0"
     inkscape:window-y="376"
     inkscape:window-maximized="0"
     inkscape:current-layer="svg4543" />
  <path
     sodipodi:nodetypes="cccccccccccccccccccc"
     inkscape:connector-curvature="0"
     id="path4537"
     d="M 8.2801739,0.62712628 C 7.7702075,0.93132241 8.1129547,1.7316328 7.8752365,2.2323618 7.7737631,2.9197277 7.4266151,3.5583185 6.8652417,3.9776186 6.3761792,4.2969708 6.1623253,4.8409496 5.9533925,5.3584209 5.618008,6.0979923 5.2995572,6.9124641 4.6431232,7.4276685 4.343308,7.6420289 3.8132114,7.4503481 4.0018973,8.0313973 c -0.00842,1.5894003 -0.013187,3.1845897 0.00108,4.7700497 0.490543,0.252794 1.129269,0.219025 1.6766975,0.369209 1.2365994,0.29785 2.5174489,0.274227 3.7802506,0.341748 0.8428756,0.01565 1.8148666,0.0057 2.4208876,-0.676219 0.537295,-0.385246 0.09165,-1.178681 0.66667,-1.545513 0.712578,-0.414747 0.10143,-1.087585 0.142984,-1.648141 0.405671,-0.3922256 0.73111,-0.9169616 0.207822,-1.3837061 C 12.71794,8.0389353 12.778046,7.7360115 12.990267,7.5590233 13.458321,7.0629117 12.975162,6.3969413 12.572828,6.0409041 12.046995,5.6612302 11.34826,5.7691138 10.736063,5.7247094 10.117918,5.7074535 9.5002442,5.7557845 8.8828124,5.755135 8.6944092,5.0745783 9.208537,4.4740563 9.4378115,3.8699484 9.90453,2.9796533 10.022534,1.7511234 9.2688014,0.97841514 8.999867,0.76812359 8.6274448,0.60100259 8.2801739,0.62712628 Z"
     style="fill:none;stroke:#000000;stroke-width:0.75000003;stroke-miterlimit:4;stroke-dasharray:none;stroke-opacity:1" />
  <path
     inkscape:connector-curvature="0"
     id="path4539"
     d="M 2.1205061,7.2733487 C 1.860257,7.2951003 1.5954029,7.2801763 1.336401,7.3001387 1.1221117,7.35824 0.96195622,7.5334868 0.91457421,7.7490913 0.87991839,8.3772797 0.89737615,9.011787 0.89032543,9.6420166 c 0.002261,1.0307194 0.004852,2.0619294 0.0183317,3.0922964 0.0141727,0.326671 0.33933697,0.553245 0.65128557,0.524546 0.4851264,0.004 0.9726684,0.02478 1.4564273,-0.012 0.3172215,-0.06316 0.5003232,-0.403928 0.4672562,-0.710296 0.00582,-1.570653 0.00833,-3.1415917 -0.011417,-4.7120996 C 3.4674225,7.4977869 3.1384718,7.2461675 2.8219508,7.29099 2.5881299,7.2880358 2.3537441,7.2787437 2.1205061,7.2733487 Z"
     style="fill:none;stroke:#000000;stroke-width:0.75000003;stroke-miterlimit:4;stroke-dasharray:none;stroke-opacity:1" />
</svg>
